# xmcd
#
# Track frame offsets:
#	150
#	22006
#	38740
#	64187
#	88481
#	110325
#	135926
#	157091
#	176302
#	198070
#	214731
#	240461
#	262316
#	287905
#	309018
#	328275
#
# Disc length: 4696 seconds
#
# Revision: 1
# Processed by: cddbd v1.5.2PL0 Copyright (c) Steve Scherf et al.
# Submitted via: audiograbber 1.83.01
#
DISCID=e5125610
DTITLE=Staunch Band - Manlalaban
DYEAR=2013
DGENRE=Gospel
TTITLE0=Bantugan
TTITLE1=Motabang S'ya
TTITLE2=Kaugmaon ta
TTITLE3=Dios sa Gugma
TTITLE4=Pagasimbahon
TTITLE5=Salmo 91
TTITLE6=Manlalaban
TTITLE7=He is my all
TTITLE8=Bantugan Minus 1
TTITLE9=Motabang S'ya Minus 1
TTITLE10=Kaugmaon Ta Minus  1
TTITLE11=Pagasimbahon Minus 1
TTITLE12=Salmo 91 Minus 1
TTITLE13=Manlalaban Minus 1
TTITLE14=He is my all Minus 1
TTITLE15=Dios sa Gugma Minus 1
EXTD=
EXTT0=
EXTT1=
EXTT2=
EXTT3=
EXTT4=
EXTT5=
EXTT6=
EXTT7=
EXTT8=
EXTT9=
EXTT10=
EXTT11=
EXTT12=
EXTT13=
EXTT14=
EXTT15=
PLAYORDER=
